<svg width="512" height="512.00026" xmlns="http://www.w3.org/2000/svg">

 <g>
  <title>Layer 1</title>
  <path id="svg_1" d="m511.99609,256c-0.03906,-16.51562 -11.89843,-30.63672 -28.16015,-33.52734c-5.47656,-37.64453 -20.28125,-73.32032 -43.06641,-103.78125c9.58985,-13.52735 8.00781,-32.00782 -3.74609,-43.70703c-11.89063,-11.3086 -30.03516,-12.85157 -43.66406,-3.71094c-30.47266,-22.8086 -66.16797,-37.62891 -103.83204,-43.10938c-3.25,-18.51562 -20.89062,-30.89453 -39.41015,-27.64453c-14.11328,2.47266 -25.16797,13.52735 -27.64453,27.64453c-37.67578,5.47657 -73.37891,20.29688 -103.85938,43.10938c-13.625,-9.14063 -31.77344,-7.59766 -43.66406,3.71094c-11.75,11.69921 -13.33594,30.17968 -3.74609,43.70703c-22.77735,30.46484 -37.57032,66.14062 -43.03907,103.78125c-18.51562,3.25 -30.89453,20.89062 -27.64453,39.41015c2.47266,14.11328 13.52735,25.16797 27.64453,27.64453c5.47657,37.64454 20.28125,73.32032 43.06641,103.78125c-10.86719,15.33985 -7.24609,36.58204 8.09375,47.45313c11.78906,8.35547 27.57031,8.35547 39.35937,0c30.46094,22.78906 66.14063,37.59766 103.78907,43.07422c3.25,18.51953 20.89453,30.89453 39.41015,27.64843c14.11719,-2.47656 25.16797,-13.53125 27.64453,-27.64843c37.64454,-5.47657 73.32032,-20.28125 103.78125,-43.06641c15.33985,10.87109 36.58594,7.24609 47.45313,-8.09375c8.35547,-11.78906 8.35547,-27.57031 0,-39.35937c22.78906,-30.46094 37.59766,-66.14063 43.07422,-103.78907c16.26172,-2.89062 28.12109,-17.01172 28.16015,-33.52734zm-116.28906,127.64063l-37.48828,-37.48829c20.13281,-22.63671 32.06641,-51.38281 33.89453,-81.62109l52.82813,0c2.875,11.02344 11.0664,19.87891 21.82812,23.60547c-5.15234,34.15234 -18.60547,66.51953 -39.18359,94.25781c-10.22656,-4.65625 -22.05078,-4.19531 -31.87891,1.2461zm-139.70703,-8.17579c-66.08203,0.10547 -119.73828,-53.38281 -119.83984,-119.46484c-0.10547,-66.08203 53.3789,-119.73438 119.46093,-119.83984c66.08204,-0.10547 119.73829,53.38281 119.84375,119.46484c0.05078,31.79688 -12.5625,62.30859 -35.04687,84.79297c-22.32813,22.48828 -52.72656,35.10547 -84.41797,35.04687zm-139.70703,8.17579c-9.83594,-5.44922 -21.67188,-5.91016 -31.90625,-1.2461c-20.56641,-27.74219 -34.01563,-60.10937 -39.15625,-94.25781c10.76172,-3.72656 18.95312,-12.58203 21.82812,-23.60547l52.82813,0c1.82422,30.23828 13.76172,58.98438 33.89453,81.62109l-37.48828,37.48829zm-17.17578,-250.39063c6.07812,-0.02734 12.03906,-1.6875 17.2539,-4.8125l37.41016,37.41016c-20.13281,22.63672 -32.07031,51.38281 -33.89453,81.61718l-52.82813,0c-2.875,-11.01953 -11.0664,-19.875 -21.82812,-23.60156c5.12891,-34.10547 18.54297,-66.43359 39.0625,-94.15625c4.60937,2.28906 9.67969,3.5 14.82422,3.54297zm296.51172,-4.8125c9.75781,5.91797 21.87109,6.41016 32.07812,1.29688c20.51563,27.71484 33.92969,60.03125 39.0625,94.1289c-10.76172,3.72656 -18.95312,12.58203 -21.82812,23.60156l-52.82813,0c-1.82812,-30.23437 -13.76172,-58.98046 -33.89453,-81.61718l37.41016,-37.41016zm99.30078,127.5625c0,9.42578 -7.64063,17.06641 -17.06641,17.06641s-17.06641,-7.64063 -17.06641,-17.06641s7.64063,-17.06641 17.06641,-17.06641s17.06641,7.64063 17.06641,17.06641zm-82.04688,-173.94922c9.42578,-0.0039 17.07031,7.63672 17.07031,17.0625c0.00391,4.52735 -1.79296,8.86719 -4.99609,12.07031c-6.75,6.44922 -17.37891,6.44922 -24.13281,0c-6.66016,-6.66796 -6.66016,-17.47265 0.0039,-24.13671c3.19922,-3.19922 7.53907,-4.9961 12.0625,-4.9961l-0.00781,0zm-124.74609,-36.82031c34.10547,5.12891 66.43359,18.54297 94.15625,39.0625c-5.11328,10.20703 -4.625,22.32031 1.29687,32.07812l-37.41015,37.41016c-22.64453,-20.13672 -51.39844,-32.07422 -81.64453,-33.89453l0,-52.82813c11.01953,-2.875 19.875,-11.0664 23.60156,-21.82812zm-32.13672,-28.16016c9.42578,0 17.06641,7.64063 17.06641,17.06641s-7.64063,17.06641 -17.06641,17.06641s-17.06641,-7.64063 -17.06641,-17.06641s7.64063,-17.06641 17.06641,-17.06641zm-8.53125,49.98828l0,52.82813c-30.23828,1.82812 -58.98438,13.76172 -81.62109,33.89453l-37.41016,-37.41016c5.91797,-9.75781 6.41016,-21.87109 1.29687,-32.07812c27.71485,-20.51563 60.03125,-33.92969 94.12891,-39.0625c3.72656,10.76172 12.58203,18.95312 23.60547,21.82812zm-160.42578,19.98438c6.54687,-6.78125 17.35156,-6.96875 24.13281,-0.42188c6.77734,6.55079 6.96484,17.35547 0.41797,24.13282c-0.13672,0.14453 -0.27734,0.28125 -0.41797,0.42187c-6.75391,6.44922 -17.38281,6.44922 -24.13281,0c-6.66406,-6.66406 -6.66406,-17.46875 0,-24.13281zm-69.97266,168.95703c0,-9.42578 7.64063,-17.06641 17.06641,-17.06641s17.0664,7.64063 17.0664,17.06641s-7.64062,17.06641 -17.0664,17.06641s-17.06641,-7.64063 -17.06641,-17.06641zm69.97266,168.95703c-6.66797,-6.66406 -6.66797,-17.46875 -0.00391,-24.13281c6.66406,-6.66797 17.46875,-6.66797 24.13672,-0.00391c6.66406,6.66407 6.66406,17.46875 0.00391,24.13282c-0.00391,0.0039 -0.00391,0.0039 -0.00391,0.0039c-6.75391,6.44922 -17.38281,6.44922 -24.13281,0zm136.8125,41.8125c-34.10156,-5.13281 -66.42969,-18.54297 -94.14844,-39.0625c5.11328,-10.20703 4.625,-22.32031 -1.29687,-32.07812l37.41015,-37.41016c22.64453,20.13672 51.39844,32.07422 81.64844,33.89453l0,52.82813c-11.02344,2.875 -19.87891,11.0664 -23.60547,21.82812l-0.00781,0zm32.14453,28.16016c-9.42578,0 -17.06641,-7.64063 -17.06641,-17.06641s7.64063,-17.0664 17.06641,-17.0664s17.06641,7.64062 17.06641,17.0664s-7.64063,17.06641 -17.06641,17.06641zm8.53516,-49.98828l0,-52.82813c30.23437,-1.82812 58.98047,-13.76172 81.61718,-33.89453l37.41016,37.41016c-5.91797,9.75781 -6.41016,21.87109 -1.29687,32.07812c-27.71485,20.51563 -60.03125,33.92969 -94.12891,39.0625c-3.72656,-10.76172 -12.58203,-18.95312 -23.60156,-21.82812zm160.42187,-19.98438c-6.75,6.44922 -17.3789,6.44922 -24.13281,0c-6.66406,-6.66406 -6.66406,-17.46875 0,-24.13281c6.66015,-6.66797 17.46875,-6.66797 24.13281,-0.00391c6.66797,6.66407 6.66797,17.46875 0.00391,24.13282c0,0.0039 -0.00391,0.0039 -0.00391,0.0039zm0,0"/>
  <path id="svg_2" d="m334.50391,177.49609c-43.29688,-43.39062 -113.57422,-43.46484 -156.96485,-0.16796c-43.39062,43.30078 -43.46484,113.57812 -0.16406,156.96875s113.57422,43.46484 156.96484,0.16406c20.83985,-20.79688 32.5625,-49.01953 32.59375,-78.46094c0.10938,-29.44922 -11.5664,-57.71875 -32.42968,-78.50391zm-78.50391,172.3711c-51.875,0.03125 -93.95313,-41.99219 -93.98438,-93.86719c-0.03515,-51.875 41.99219,-93.95312 93.86329,-93.98437c51.875,-0.03516 93.95312,41.99218 93.98828,93.86328l0,0.12109c-0.0625,51.81641 -42.05078,93.80469 -93.86719,93.86719zm0,0"/>
  <g stroke="null" id="svg_26">
   <g stroke="null" transform="matrix(0.276693 0 0 0.276693 57.9999 53.5253)" id="svg_8">
    <g stroke="null" id="svg_9">
     <path stroke="null" id="svg_10" d="m819.01509,656.88267l0,-45.639c0,-33.084 -26.916,-60 -60,-60l-234,0c-33.084,0 -60,26.916 -60,60l0,234c0,33.084 26.916,60 60,60l234,0c33.084,0 60,-26.916 60,-60l0,-44.639l158,79l0,-301.722l-158,79zm-40,188.361c0,11.028 -8.972,20 -20,20l-234,0c-11.028,0 -20,-8.972 -20,-20l0,-234c0,-11.028 8.972,-20 20,-20l234,0c11.028,0 20,8.972 20,20l0,234zm158,-30.361l-118,-59l0,-54.278l118,-59l0,172.278z"/>
    </g>
   </g>
   <g stroke="null" transform="matrix(0.276693 0 0 0.276693 57.9999 53.5253)" id="svg_11"/>
   <g stroke="null" transform="matrix(0.276693 0 0 0.276693 57.9999 53.5253)" id="svg_12"/>
   <g stroke="null" transform="matrix(0.276693 0 0 0.276693 57.9999 53.5253)" id="svg_13"/>
   <g stroke="null" transform="matrix(0.276693 0 0 0.276693 57.9999 53.5253)" id="svg_14"/>
   <g stroke="null" transform="matrix(0.276693 0 0 0.276693 57.9999 53.5253)" id="svg_15"/>
   <g stroke="null" transform="matrix(0.276693 0 0 0.276693 57.9999 53.5253)" id="svg_16"/>
   <g stroke="null" transform="matrix(0.276693 0 0 0.276693 57.9999 53.5253)" id="svg_17"/>
   <g stroke="null" transform="matrix(0.276693 0 0 0.276693 57.9999 53.5253)" id="svg_18"/>
   <g stroke="null" transform="matrix(0.276693 0 0 0.276693 57.9999 53.5253)" id="svg_19"/>
   <g stroke="null" transform="matrix(0.276693 0 0 0.276693 57.9999 53.5253)" id="svg_20"/>
   <g stroke="null" transform="matrix(0.276693 0 0 0.276693 57.9999 53.5253)" id="svg_21"/>
   <g stroke="null" transform="matrix(0.276693 0 0 0.276693 57.9999 53.5253)" id="svg_22"/>
   <g stroke="null" transform="matrix(0.276693 0 0 0.276693 57.9999 53.5253)" id="svg_23"/>
   <g stroke="null" transform="matrix(0.276693 0 0 0.276693 57.9999 53.5253)" id="svg_24"/>
   <g stroke="null" transform="matrix(0.276693 0 0 0.276693 57.9999 53.5253)" id="svg_25"/>
  </g>
 </g>
</svg>